<svg width="405" height="120" viewBox="0 0 405 120" fill="none" xmlns="http://www.w3.org/2000/svg">
<path d="M161.828 71V48.25H168.859C171.234 48.25 173.036 48.7812 174.266 49.8438C175.505 50.8958 176.125 52.4427 176.125 54.4844C176.125 55.6406 175.87 56.6354 175.359 57.4688C174.849 58.3021 174.151 58.9115 173.266 59.2969C174.286 59.5885 175.073 60.1771 175.625 61.0625C176.177 61.9375 176.453 63.0208 176.453 64.3125C176.453 66.5208 175.844 68.1875 174.625 69.3125C173.417 70.4375 171.661 71 169.359 71H161.828ZM166.422 61.1094V67.1875H169.359C170.182 67.1875 170.807 66.9323 171.234 66.4219C171.661 65.9115 171.875 65.1875 171.875 64.25C171.875 62.2083 171.135 61.1615 169.656 61.1094H166.422ZM166.422 57.7656H168.812C170.615 57.7656 171.516 56.8333 171.516 54.9688C171.516 53.9375 171.307 53.1979 170.891 52.75C170.474 52.3021 169.797 52.0781 168.859 52.0781H166.422V57.7656ZM188.231 67.1875H196.293V71H183.637V48.25H188.231V67.1875ZM217.211 48.25V64C217.19 66.3646 216.539 68.1771 215.258 69.4375C213.977 70.6875 212.138 71.3125 209.743 71.3125C207.305 71.3125 205.44 70.6771 204.149 69.4062C202.868 68.1354 202.227 66.2969 202.227 63.8906V48.25H206.852V63.9062C206.852 65.1979 207.06 66.1198 207.477 66.6719C207.894 67.224 208.649 67.5 209.743 67.5C210.836 67.5 211.586 67.2292 211.993 66.6875C212.399 66.1354 212.607 65.2344 212.618 63.9844V48.25H217.211ZM236.286 61.1562H229.129V67.1875H237.598V71H224.536V48.25H237.567V52.0781H229.129V57.4531H236.286V61.1562ZM259.563 68.4219C258.678 69.3802 257.589 70.1042 256.298 70.5938C255.016 71.0729 253.61 71.3125 252.079 71.3125C249.464 71.3125 247.433 70.5052 245.985 68.8906C244.537 67.2656 243.792 64.9062 243.751 61.8125V57.7188C243.751 54.5833 244.433 52.1719 245.798 50.4844C247.173 48.7865 249.173 47.9375 251.798 47.9375C254.266 47.9375 256.126 48.5469 257.376 49.7656C258.636 50.9844 259.365 52.8958 259.563 55.5H255.094C254.969 54.0521 254.667 53.0677 254.188 52.5469C253.709 52.0156 252.959 51.75 251.938 51.75C250.699 51.75 249.798 52.2031 249.235 53.1094C248.673 54.0156 248.381 55.4583 248.36 57.4375V61.5625C248.36 63.6354 248.667 65.1458 249.282 66.0938C249.907 67.0312 250.928 67.5 252.344 67.5C253.251 67.5 253.985 67.3177 254.548 66.9531L254.954 66.6719V62.5H251.735V59.0312H259.563V68.4219ZM278.403 61.1562H271.247V67.1875H279.716V71H266.653V48.25H279.684V52.0781H271.247V57.4531H278.403V61.1562ZM302.118 71H297.524L290.806 56.0781V71H286.212V48.25H290.806L297.54 63.1875V48.25H302.118V71ZM321.396 61.1562H314.239V67.1875H322.708V71H309.646V48.25H322.677V52.0781H314.239V57.4531H321.396V61.1562ZM338.814 65.0312C338.814 64.1042 338.574 63.4062 338.095 62.9375C337.626 62.4583 336.767 61.9635 335.517 61.4531C333.236 60.5885 331.595 59.5781 330.595 58.4219C329.595 57.2552 329.095 55.8802 329.095 54.2969C329.095 52.3802 329.772 50.8438 331.126 49.6875C332.491 48.5208 334.22 47.9375 336.314 47.9375C337.71 47.9375 338.954 48.2344 340.048 48.8281C341.142 49.4115 341.98 50.2396 342.564 51.3125C343.158 52.3854 343.454 53.6042 343.454 54.9688H338.876C338.876 53.9062 338.647 53.099 338.189 52.5469C337.741 51.9844 337.09 51.7031 336.236 51.7031C335.434 51.7031 334.809 51.9427 334.361 52.4219C333.913 52.8906 333.689 53.526 333.689 54.3281C333.689 54.9531 333.939 55.5208 334.439 56.0312C334.939 56.5312 335.824 57.0521 337.095 57.5938C339.314 58.3958 340.923 59.3802 341.923 60.5469C342.934 61.7135 343.439 63.1979 343.439 65C343.439 66.9792 342.809 68.526 341.548 69.6406C340.288 70.7552 338.574 71.3125 336.408 71.3125C334.939 71.3125 333.6 71.0104 332.392 70.4062C331.184 69.8021 330.236 68.9375 329.548 67.8125C328.871 66.6875 328.533 65.3594 328.533 63.8281H333.142C333.142 65.1406 333.397 66.0938 333.908 66.6875C334.418 67.2812 335.251 67.5781 336.408 67.5781C338.012 67.5781 338.814 66.7292 338.814 65.0312Z" fill="white"/>
<path d="M149.034 72.9929C149.025 72.6901 149.008 72.1541 148.596 71.7336C148.193 71.324 147.669 71.2813 147.516 71.2741L124.245 71.2583C124.016 71.2265 123.693 71.1745 123.311 71.0907C122.699 70.956 121.436 70.6297 119.697 69.6835C118.325 68.9372 117.427 68.2231 116.044 67.1193C114.93 66.23 114.053 65.4404 113.459 64.8841L91.7673 46.6849C90.8913 46.0278 89.622 45.3193 88.0122 45.103C87.7866 45.0729 87.567 45.0543 87.3551 45.045C87.1832 45.0242 86.9822 45.0072 86.7572 45.0017C86.623 44.9979 86.525 45.0017 86.5124 45.0017C78.7053 45.0565 70.8977 45.005 63.0906 45.0367C61.7803 45.0422 60.045 44.763 60.0029 46.8026C59.998 47.0501 59.9788 47.6355 60.3807 48.1129C60.8319 48.6495 61.5333 48.7153 61.8629 48.7497C62.0387 48.7664 62.2156 48.7664 62.3913 48.7497C75.1347 48.7103 84.4032 48.7361 85.8625 48.7497C86.6055 48.7472 87.3418 48.8897 88.0303 49.1692C88.5521 49.3864 89.0379 49.6818 89.4709 50.0453C89.8361 50.3475 93.1762 53.1855 97.301 56.679L113.831 70.5508C115.411 71.8069 118.511 74.208 122.985 74.8174C123.242 74.8524 123.519 74.8776 123.519 74.8776C125.42 75.0704 126.824 74.9871 127.697 74.9494C129.051 74.8946 130.407 74.9642 131.763 74.9702C136.736 74.9926 141.711 74.8974 146.684 74.9702C147.076 74.9762 148.127 74.9937 148.665 74.3251C149.057 73.8384 149.037 73.161 149.034 72.9929Z" fill="white"/>
<path d="M60.0012 72.9926C60.0105 72.6898 60.0269 72.1538 60.4392 71.7332C60.8423 71.3237 61.3657 71.281 61.519 71.2738L84.7903 71.258C85.0186 71.2262 85.3417 71.1742 85.7244 71.0904C86.3361 70.9557 87.5987 70.6294 89.3383 69.6832C90.7072 68.9369 91.6085 68.2228 92.9911 67.119C94.1048 66.2297 94.982 65.4401 95.5761 64.8838L117.263 46.6862C118.142 46.0292 119.409 45.3206 121.018 45.1043C121.244 45.0742 121.464 45.0556 121.676 45.0463C121.847 45.0255 122.048 45.0085 122.273 45.003C122.408 44.9992 122.506 45.003 122.518 45.003C130.325 45.0578 138.133 45.0063 145.94 45.0381C147.25 45.0436 148.986 44.7643 149.028 46.804C149.033 47.0515 149.052 47.6368 148.65 48.1143C148.199 48.6509 147.5 48.7166 147.168 48.7511C146.992 48.7678 146.815 48.7678 146.639 48.7511C133.896 48.7117 124.627 48.7374 123.168 48.7511C122.425 48.7486 121.689 48.8911 121 49.1705C120.479 49.3877 119.993 49.6832 119.56 50.0466C119.195 50.3489 115.854 53.1869 111.73 56.6803L95.2038 70.5505C93.6241 71.8066 90.5243 74.2077 86.0502 74.8171C85.7929 74.8521 85.5158 74.8773 85.5158 74.8773C83.6152 75.0701 82.2108 74.9868 81.3385 74.9491C79.9844 74.8943 78.6281 74.9638 77.2723 74.9699C72.2988 74.9923 67.3243 74.897 62.3508 74.9699C61.9593 74.9759 60.908 74.9934 60.3697 74.3248C59.9777 73.8381 59.9979 73.1607 60.0012 72.9926Z" fill="white"/>
<path d="M66.6813 65.8369V48.7311H70.4594V65.8369C70.4594 66.2595 70.2916 66.6648 69.9927 66.9636C69.6939 67.2624 69.2886 67.4303 68.866 67.4303H68.2763C68.0669 67.4305 67.8596 67.3895 67.6661 67.3095C67.4725 67.2295 67.2967 67.1122 67.1486 66.9642C67.0004 66.8162 66.8829 66.6405 66.8027 66.447C66.7226 66.2536 66.6813 66.0463 66.6813 65.8369V65.8369Z" fill="white"/>
<path d="M80.5619 60.0366H70.4578V56.2585H80.5619C80.7699 56.2587 80.9758 56.2999 81.1679 56.3797C81.36 56.4595 81.5344 56.5764 81.6813 56.7236C81.8282 56.8709 81.9447 57.0456 82.024 57.2379C82.1034 57.4302 82.1441 57.6362 82.1438 57.8442V58.4531C82.1438 58.8728 81.9772 59.2753 81.6806 59.5722C81.384 59.8692 80.9816 60.0362 80.5619 60.0366V60.0366Z" fill="white"/>
<path d="M129.04 58.1661H143.784C143.991 58.1661 144.195 58.2068 144.385 58.2857C144.576 58.3646 144.749 58.4803 144.895 58.6261C145.041 58.7719 145.156 58.945 145.235 59.1356C145.314 59.3261 145.355 59.5303 145.355 59.7365V60.3608C145.355 60.7803 145.188 61.1827 144.892 61.4793C144.595 61.776 144.193 61.9427 143.773 61.9427H129.029C128.607 61.9427 128.202 61.775 127.903 61.4764C127.605 61.1779 127.437 60.7731 127.437 60.3509V59.7694C127.437 59.3442 127.606 58.9364 127.907 58.6357C128.207 58.3351 128.615 58.1661 129.04 58.1661Z" fill="white"/>
<path d="M138.589 61.9312V71.3087H142.364V61.9312H138.589Z" fill="white"/>
</svg>
