<svg width="100" height="100" viewBox="0 0 100 100" fill="none" xmlns="http://www.w3.org/2000/svg">
<path d="M99.9986 64.7253C99.9883 64.3822 99.97 63.7746 99.5116 63.298C99.0635 62.8338 98.4814 62.7854 98.3109 62.7774L72.4351 62.7594C72.1812 62.7234 71.822 62.6644 71.3964 62.5695C70.7163 62.4168 69.3123 62.047 67.378 60.9746C65.8529 60.1288 64.8538 59.3196 63.3165 58.0685C62.0781 57.0607 61.1027 56.1658 60.4421 55.5353L36.3228 34.9096C35.3486 34.1649 33.9373 33.3619 32.1473 33.1167C31.8965 33.0826 31.6523 33.0615 31.4167 33.051C31.2255 33.0274 31.0021 33.0081 30.7519 33.0019C30.6027 32.9976 30.4937 33.0019 30.4797 33.0019C21.7988 33.064 13.1173 33.0057 4.43645 33.0416C2.97949 33.0479 1.05007 32.7314 1.00319 35.043C0.997709 35.3235 0.976399 35.9869 1.42329 36.528C1.92498 37.1361 2.7049 37.2106 3.07143 37.2497C3.26683 37.2686 3.46356 37.2686 3.65896 37.2497C17.8286 37.205 28.1345 37.2342 29.757 37.2497C30.5832 37.2469 31.4019 37.4083 32.1674 37.7251C32.7477 37.9713 33.2879 38.3061 33.7693 38.718C34.1754 39.0605 37.8893 42.2769 42.4758 46.2361L60.8561 61.9576C62.6126 63.3812 66.0593 66.1024 71.0341 66.7931C71.3203 66.8328 71.6284 66.8613 71.6284 66.8613C73.7417 67.0798 75.3034 66.9854 76.2732 66.9426C77.7789 66.8806 79.287 66.9594 80.7945 66.9662C86.3246 66.9916 91.856 66.8837 97.3861 66.9662C97.8214 66.973 98.9904 66.9929 99.5889 66.2352C100.025 65.6835 100.002 64.9158 99.9986 64.7253Z" fill="white"/>
<path d="M1.00134 64.7251C1.01169 64.3819 1.02995 63.7743 1.48841 63.2977C1.93652 62.8336 2.51857 62.7852 2.68905 62.7771L28.5649 62.7591C28.8188 62.7231 29.178 62.6641 29.6036 62.5692C30.2836 62.4165 31.6876 62.0467 33.6219 60.9743C35.144 60.1285 36.1462 59.3193 37.6835 58.0682C38.9219 57.0604 39.8973 56.1656 40.5579 55.5351L64.6723 34.9111C65.6495 34.1665 67.0578 33.3634 68.8478 33.1183C69.0986 33.0842 69.3428 33.0631 69.5784 33.0525C69.7696 33.029 69.993 33.0097 70.2432 33.0035C70.3924 32.9992 70.5014 33.0035 70.5154 33.0035C79.1963 33.0656 87.8778 33.0072 96.5586 33.0432C98.0156 33.0494 99.945 32.733 99.9919 35.0446C99.9974 35.3251 100.019 35.9884 99.5718 36.5296C99.0701 37.1377 98.2932 37.2122 97.9237 37.2513C97.7283 37.2702 97.5315 37.2702 97.3361 37.2513C83.1665 37.2066 72.8607 37.2358 71.2381 37.2513C70.4119 37.2485 69.5932 37.4099 68.8277 37.7267C68.2474 37.9728 67.7072 38.3076 67.2258 38.7196C66.8197 39.0621 63.1058 42.2785 58.5194 46.2377L40.1439 61.9573C38.3873 63.3809 34.9407 66.1021 29.9658 66.7928C29.6797 66.8325 29.3716 66.861 29.3716 66.861C27.2583 67.0795 25.6966 66.9852 24.7267 66.9423C23.2211 66.8803 21.713 66.9591 20.2055 66.9659C14.6753 66.9914 9.144 66.8834 3.61388 66.9659C3.17856 66.9727 2.00958 66.9926 1.41109 66.2349C0.975157 65.6832 0.997684 64.9156 1.00134 64.7251Z" fill="white"/>
<path d="M8.42908 56.6152L8.42908 37.2286H12.6301V56.6152C12.6301 57.0941 12.4434 57.5534 12.1112 57.8921C11.7789 58.2308 11.3283 58.421 10.8584 58.421H10.2026C9.96982 58.4213 9.73923 58.3747 9.52407 58.2841C9.3089 58.1934 9.11337 58.0605 8.94865 57.8928C8.78394 57.725 8.65327 57.5259 8.56412 57.3067C8.47497 57.0874 8.42908 56.8525 8.42908 56.6152V56.6152Z" fill="white"/>
<path d="M23.8632 50.0415H12.6283V45.7596H23.8632C24.0945 45.7598 24.3235 45.8065 24.5371 45.897C24.7506 45.9874 24.9446 46.1199 25.108 46.2868C25.2713 46.4537 25.4008 46.6517 25.489 46.8696C25.5773 47.0875 25.6225 47.321 25.6222 47.5568L25.6222 48.2468C25.6222 48.7225 25.4369 49.1787 25.1071 49.5152C24.7773 49.8517 24.3299 50.041 23.8632 50.0415V50.0415Z" fill="white"/>
<path d="M77.7675 47.9216H94.1618C94.3911 47.9216 94.6182 47.9677 94.83 48.0571C95.0419 48.1465 95.2344 48.2776 95.3965 48.4429C95.5587 48.6082 95.6873 48.8044 95.7751 49.0203C95.8628 49.2363 95.908 49.4677 95.908 49.7014V50.4089C95.908 50.8843 95.7227 51.3404 95.3928 51.6766C95.0629 52.0128 94.6155 52.2017 94.149 52.2017H77.7547C77.2853 52.2017 76.8351 52.0116 76.5032 51.6733C76.1713 51.335 75.9848 50.8761 75.9848 50.3977V49.7387C75.9848 49.2567 76.1726 48.7946 76.5069 48.4538C76.8413 48.1131 77.2947 47.9216 77.7675 47.9216Z" fill="white"/>
<path d="M88.3843 52.1886V62.8165H92.5829V52.1886H88.3843Z" fill="white"/>
</svg>
