<svg width="40" height="40" viewBox="0 0 40 40" fill="none" xmlns="http://www.w3.org/2000/svg">
<path d="M20 0C8.9725 0 0 8.9725 0 20C0 31.0275 8.9725 40 20 40C31.0275 40 40 31.0275 40 20C40 8.9725 31.0275 0 20 0ZM20 2.5C23.5325 2.5 26.8175 3.56 29.57 5.3675C28.6125 5.9 27.725 7.02 27.725 9.4C27.725 10.665 28.5875 12.1325 29.585 13.8325C30.7825 15.8725 32.2675 18.41 31.895 20.2425C31.485 21.455 30.445 24.2075 29.3175 27.145L24.15 12.295C24.255 12.2675 24.3725 12.25 24.4725 12.2175C25.1275 12 25.48 11.2925 25.2625 10.6375C25.0425 9.9825 24.3375 9.635 23.68 9.8475C22.615 10.2025 20.6875 10.195 19.53 10.1925H19.1825H18.835C17.685 10.195 15.75 10.2025 14.685 9.8475C14.0375 9.6275 13.3275 9.9825 13.1075 10.6375C12.8875 11.2925 13.2425 12 13.8975 12.2175C14.425 12.395 15.0475 12.49 15.6825 12.56L18.7575 20.555L15.85 27.89L10.8825 12.35C11.065 12.3075 11.26 12.275 11.4275 12.2175C12.0825 12 12.4375 11.2925 12.2175 10.6375C11.9975 9.9825 11.2925 9.6275 10.6375 9.8475C9.575 10.2025 7.6425 10.1925 6.485 10.1925H6.1425C5.9175 10.1925 5.7325 10.175 5.5425 10.16C8.695 5.54 13.9975 2.5 20 2.5ZM2.5 20C2.5 18.035 2.84 16.15 3.44 14.385L11.11 35.0475C5.9675 31.995 2.5 26.4025 2.5 20ZM20 37.5C18.27 37.5 16.6025 37.2375 15.0225 36.77L20.0825 24L24.9925 36.7675C23.41 37.2375 21.735 37.5 20 37.5ZM28.9475 35.01C30.5675 30.8575 33.3575 23.665 34.195 21.2325L34.2275 21.2425C34.2625 21.1425 34.3 21.0125 34.325 20.86C34.6075 20.075 34.8475 19.3575 35.04 18.7525C35.6575 16.8 36.05 15.0825 36.255 13.5625C37.05 15.5575 37.5 17.725 37.5 20C37.5 26.3775 34.06 31.9525 28.9475 35.01Z" fill="white"/>
</svg>
