<svg width="40" height="40" viewBox="0 0 40 40" fill="none" xmlns="http://www.w3.org/2000/svg">
<path fill-rule="evenodd" clip-rule="evenodd" d="M40 20C40 31.0457 31.0457 40 20 40C8.9543 40 0 31.0457 0 20C0 8.9543 8.9543 0 20 0C31.0457 0 40 8.9543 40 20ZM23.4139 10.9063C26.4921 11.1406 29.0936 13.1797 29.0936 13.1797C29.0936 13.1797 31.9999 17.3985 32.5155 25.6797C29.5858 29.0625 25.1327 29.086 25.1327 29.086L24.203 27.8438C25.7811 27.2969 27.5702 26.3125 29.1092 24.5391C27.2655 25.9375 24.4921 27.3828 20.0155 27.3828C15.5389 27.3828 12.7577 25.9297 10.9217 24.5391C12.4608 26.3125 14.2499 27.2969 15.828 27.8438L14.8983 29.086C14.8983 29.086 10.4452 29.0625 7.51549 25.6797C8.01549 17.3985 10.9217 13.1797 10.9217 13.1797C10.9217 13.1797 13.3749 11.211 16.6014 10.9063L16.8749 11.461C14.3358 12.0313 12.8202 13.1172 11.4842 14.3125C13.7811 13.1406 16.0546 12.0391 20.0077 12.0391C23.9608 12.0391 26.2342 13.1406 28.5311 14.3125C27.1952 13.1172 25.9217 12.1406 23.1405 11.461L23.4139 10.9063ZM14.3124 21.1328C14.3124 22.3906 15.203 23.4063 16.3046 23.4063C17.4061 23.4063 18.2967 22.3906 18.2967 21.1328C18.2967 19.875 17.4061 18.8594 16.3046 18.8594C15.203 18.8594 14.3124 19.875 14.3124 21.1328ZM21.703 21.1328C21.703 22.3906 22.5936 23.4063 23.6952 23.4063C24.7889 23.4063 25.6874 22.3906 25.6874 21.1328C25.6874 19.875 24.7967 18.8594 23.6952 18.8594C22.5936 18.8594 21.703 19.875 21.703 21.1328Z" fill="white"/>
</svg>
