<svg width="40" height="40" viewBox="0 0 40 40" fill="none" xmlns="http://www.w3.org/2000/svg">
<path d="M11.667 13.5068V15.6668L20.327 21.0802L28.987 15.6668V13.5068L20.327 18.9202L11.667 13.5068Z" fill="white"/>
<path d="M20 0C16.0444 0 12.1776 1.17298 8.8886 3.37061C5.59962 5.56824 3.03617 8.69181 1.52242 12.3463C0.00866572 16.0009 -0.387401 20.0222 0.384303 23.9018C1.15601 27.7814 3.06082 31.3451 5.85787 34.1421C8.65492 36.9392 12.2186 38.844 16.0982 39.6157C19.9778 40.3874 23.9992 39.9913 27.6537 38.4776C31.3082 36.9638 34.4318 34.4004 36.6294 31.1114C38.827 27.8224 40 23.9556 40 20C40 14.6957 37.8929 9.60859 34.1421 5.85786C30.3914 2.10714 25.3043 0 20 0V0ZM31.1533 26.4933C31.1533 27.0686 30.9253 27.6204 30.5191 28.0278C30.113 28.4351 29.5619 28.6649 28.9867 28.6667H11.6533C11.0799 28.6649 10.5305 28.4358 10.1256 28.0297C9.7207 27.6236 9.49334 27.0735 9.49334 26.5V13.5067C9.49246 13.221 9.54807 12.938 9.65698 12.6739C9.76589 12.4098 9.92594 12.1699 10.1279 11.9679C10.3299 11.7659 10.5699 11.6059 10.8339 11.497C11.098 11.3881 11.381 11.3325 11.6667 11.3333H29C29.5741 11.3351 30.1242 11.5639 30.5301 11.9699C30.9361 12.3758 31.1649 12.9259 31.1667 13.5L31.1533 26.4933Z" fill="white"/>
</svg>
