<svg width="40" height="40" viewBox="0 0 40 40" fill="none" xmlns="http://www.w3.org/2000/svg">
<path d="M20 0C16.0444 0 12.1776 1.17298 8.8886 3.37061C5.59962 5.56824 3.03617 8.69181 1.52242 12.3463C0.00866572 16.0009 -0.387401 20.0222 0.384303 23.9018C1.15601 27.7814 3.06082 31.3451 5.85787 34.1421C8.65492 36.9392 12.2186 38.844 16.0982 39.6157C19.9778 40.3874 23.9992 39.9913 27.6537 38.4776C31.3082 36.9638 34.4318 34.4004 36.6294 31.1114C38.827 27.8224 40 23.9556 40 20C40 14.6957 37.8929 9.60859 34.1421 5.85786C30.3914 2.10714 25.3043 0 20 0V0ZM20 31.1133C20 31.1133 12.22 22.5 12.22 16.6667C12.22 14.6033 13.0397 12.6244 14.4987 11.1654C15.9578 9.70634 17.9366 8.88667 20 8.88667C22.0634 8.88667 24.0423 9.70634 25.5013 11.1654C26.9603 12.6244 27.78 14.6033 27.78 16.6667C27.78 22.5 20 31.1133 20 31.1133Z" fill="white"/>
<path d="M19.9997 13.8867C19.4499 13.8867 18.9124 14.0498 18.4552 14.3552C17.9981 14.6607 17.6418 15.0949 17.4313 15.6029C17.2209 16.1108 17.1659 16.6698 17.2731 17.2091C17.3804 17.7483 17.6452 18.2437 18.034 18.6325C18.4228 19.0213 18.9181 19.286 19.4574 19.3933C19.9966 19.5006 20.5556 19.4455 21.0636 19.2351C21.5716 19.0247 22.0057 18.6684 22.3112 18.2112C22.6167 17.754 22.7797 17.2166 22.7797 16.6667C22.7797 16.3016 22.7078 15.9401 22.5681 15.6029C22.4284 15.2656 22.2236 14.9591 21.9655 14.701C21.7073 14.4428 21.4009 14.238 21.0636 14.0983C20.7263 13.9586 20.3648 13.8867 19.9997 13.8867V13.8867Z" fill="white"/>
</svg>
