<svg width="40" height="40" viewBox="0 0 40 40" fill="none" xmlns="http://www.w3.org/2000/svg">
<path fill-rule="evenodd" clip-rule="evenodd" d="M5.85786 34.1421C9.60859 37.8929 14.6957 40 20 40C25.3043 40 30.3914 37.8929 34.1421 34.1421C37.8929 30.3914 40 25.3043 40 20C40 14.6957 37.8929 9.60859 34.1421 5.85786C30.3914 2.10714 25.3043 0 20 0C14.6957 0 9.60859 2.10714 5.85786 5.85786C2.10714 9.60859 0 14.6957 0 20C0 25.3043 2.10714 30.3914 5.85786 34.1421ZM16.0334 28.6667C13.6543 28.658 11.3281 27.9636 9.33345 26.6667C11.6303 26.9382 13.9416 26.2939 15.7668 24.8734C14.8537 24.8559 13.9689 24.5535 13.2361 24.0085C12.5034 23.4634 11.9593 22.7029 11.6801 21.8334C12.3434 21.9646 13.0282 21.9395 13.6801 21.76C12.6817 21.5582 11.785 21.0142 11.1448 20.2219C10.5046 19.4296 10.161 18.4386 10.1734 17.42C10.7872 17.7585 11.4728 17.9459 12.1734 17.9667C11.2511 17.3446 10.6 16.3949 10.3524 15.3103C10.1047 14.2256 10.2791 13.0874 10.8401 12.1267C11.938 13.4776 13.308 14.5824 14.8608 15.3692C16.4137 16.1559 18.1148 16.6071 19.8535 16.6934C19.6342 15.7553 19.7304 14.7712 20.127 13.8933C20.5236 13.0154 21.1985 12.2928 22.0473 11.8373C22.8961 11.3817 23.8714 11.2187 24.8222 11.3735C25.773 11.5283 26.6463 11.9922 27.3068 12.6934C28.285 12.5009 29.2229 12.1424 30.0801 11.6334C29.7542 12.6459 29.072 13.5057 28.1601 14.0534C29.0247 13.9596 29.8699 13.7348 30.6668 13.3867C30.0779 14.268 29.3349 15.0358 28.4735 15.6534C28.7535 21.8 24.1668 28.6667 16.0334 28.6667Z" fill="white"/>
</svg>
