<svg width="22" height="22" viewBox="0 0 22 22" fill="none" xmlns="http://www.w3.org/2000/svg">
<path d="M10.0833 16.5H11.9166V14.6667H10.0833V16.5ZM11 1.83337C5.93998 1.83337 1.83331 5.94004 1.83331 11C1.83331 16.06 5.93998 20.1667 11 20.1667C16.06 20.1667 20.1666 16.06 20.1666 11C20.1666 5.94004 16.06 1.83337 11 1.83337ZM11 18.3334C6.95748 18.3334 3.66665 15.0425 3.66665 11C3.66665 6.95754 6.95748 3.66671 11 3.66671C15.0425 3.66671 18.3333 6.95754 18.3333 11C18.3333 15.0425 15.0425 18.3334 11 18.3334ZM11 5.50004C8.97415 5.50004 7.33331 7.14087 7.33331 9.16671H9.16665C9.16665 8.15837 9.99165 7.33337 11 7.33337C12.0083 7.33337 12.8333 8.15837 12.8333 9.16671C12.8333 11 10.0833 10.7709 10.0833 13.75H11.9166C11.9166 11.6875 14.6666 11.4584 14.6666 9.16671C14.6666 7.14087 13.0258 5.50004 11 5.50004Z" fill="white"/>
</svg>
